<svg width="148" height="98" viewBox="0 0 148 98" fill="none" xmlns="http://www.w3.org/2000/svg">
  <path d="M70.235 18.765a1.745 1.745 0 0 1 0 2.47l-14.997 15a1.75 1.75 0 0 1-2.854-1.904c.088-.211.217-.404.379-.566L65.99 20.53l.53-.53-.53-.53L52.763 6.238a1.751 1.751 0 0 1 2.475-2.475l14.997 15.002ZM94 33.25c.969 0 1.75.781 1.75 1.75s-.781 1.75-1.75 1.75H71.5c-.969 0-1.75-.781-1.75-1.75s.781-1.75 1.75-1.75H94Z" stroke="#3294F8" stroke-width="1.5"/>
  <path d="M14.484 78.27v7.488c-1.109 1.015-3.355 1.523-6.738 1.523-.664 0-1.25-.027-1.758-.082-.5-.055-.96-.125-1.383-.21a2.919 2.919 0 0 1-1.066-.434 7.678 7.678 0 0 1-.785-.633c-.227-.211-.41-.516-.55-.914a13.13 13.13 0 0 1-.352-1.172c-.086-.375-.153-.879-.2-1.512a52.598 52.598 0 0 1-.082-1.816 85.62 85.62 0 0 1-.023-2.227c0-.773.004-1.433.012-1.98a41.08 41.08 0 0 1 .082-1.676c.046-.57.105-1.043.175-1.418.079-.383.18-.766.305-1.148.133-.391.285-.703.457-.938.172-.242.387-.48.645-.715.257-.234.543-.414.855-.539a8.647 8.647 0 0 1 1.113-.34 8.067 8.067 0 0 1 1.383-.199 22.06 22.06 0 0 1 1.7-.059h.175c.547 0 .961.004 1.242.012.282.008.66.04 1.137.094.485.047.856.125 1.113.234.258.102.555.258.891.47a2 2 0 0 1 .75.76c.164.298.309.677.434 1.138.125.46.187.992.187 1.593 0 .14-.008.336-.023.586l-2.098.399-.129-2.309c-.015-.5-.3-.82-.855-.96-.555-.15-1.606-.224-3.153-.224-1.054 0-1.851.067-2.39.2-.54.125-.914.32-1.125.586-.211.265-.34.66-.387 1.183-.07 1.602-.106 3.242-.106 4.922 0 1.688.036 3.328.106 4.922.039.844.105 1.39.2 1.64.148.383.487.641 1.019.774.5.125 1.37.188 2.613.188 2.672 0 4.152-.18 4.441-.54a697.87 697.87 0 0 1-.011-4.898H9.352l-.2-1.77 5.332.001ZM20.426 87h-2.38V69.54h2.38V87ZM33.89 71.344h-4.559V87h-2.379V71.344h-4.465v-1.805H33.89v1.805ZM48.445 87h-2.379v-8.016h-7.804V87h-2.38V69.54h2.38v7.593h7.804v-7.594h2.38L48.445 87Zm16.91-17.46v10.933c0 .937-.043 1.742-.128 2.414a6.94 6.94 0 0 1-.434 1.793c-.211.515-.477.937-.797 1.265-.312.32-.727.586-1.242.797a6.865 6.865 0 0 1-1.711.422c-.633.078-1.398.117-2.297.117-.867 0-1.605-.035-2.215-.105a7.41 7.41 0 0 1-1.687-.387c-.516-.195-.934-.45-1.254-.762-.313-.32-.582-.734-.809-1.242-.226-.516-.386-1.12-.48-1.816a20.71 20.71 0 0 1-.13-2.496V69.539h2.38v12.645c.008.289.031.644.07 1.066.04.414.09.7.152.856.063.148.164.335.305.562.149.226.313.371.492.434.188.054.442.125.762.21.32.086.664.137 1.031.153.375.008.84.012 1.395.012.656 0 1.203-.02 1.64-.059a4.678 4.678 0 0 0 1.16-.234c.329-.118.579-.25.75-.399.18-.156.32-.383.422-.68.11-.296.18-.605.211-.925.032-.32.047-.746.047-1.278l-.011-12.363h2.379l-.001.001Zm16.043 12.433c-.007.492-.027.925-.058 1.3a8.447 8.447 0 0 1-.328 1.875c-.07.227-.184.442-.34.645a3.378 3.378 0 0 1-.434.48c-.14.118-.344.227-.61.329-.244.09-.495.16-.75.21a8.968 8.968 0 0 1-.972.118c-.398.03-.785.05-1.16.058-.367.008-.832.012-1.394.012h-6.258V69.54h6.633c.882 0 1.613.046 2.191.14a4.79 4.79 0 0 1 1.547.48c.453.234.781.567.984.996.203.43.309.977.317 1.64l.011 1.266c0 .532-.02.965-.058 1.301-.04.336-.11.64-.211.914a1.37 1.37 0 0 1-.434.645 2.71 2.71 0 0 1-.715.398c-.347.12-.703.211-1.066.27.531.054.988.172 1.371.351.383.18.684.395.902.645.227.25.403.566.528.95.125.382.207.757.246 1.124.039.367.058.805.058 1.313Zm-2.941-8.414v-.762c0-.14-.023-.309-.07-.504-.04-.203-.082-.336-.13-.399-.038-.062-.136-.144-.292-.246a.915.915 0 0 0-.446-.187c-.148-.023-.382-.05-.703-.082a7.545 7.545 0 0 0-.937-.059h-4.43v5.602h2.356c1.023 0 1.851-.028 2.484-.082.633-.063 1.102-.164 1.406-.305.313-.148.516-.304.61-.469.101-.164.152-.382.152-.656v-1.851Zm.621 7.851c-.016-.93-.05-1.516-.105-1.758-.11-.43-.38-.722-.809-.879-.531-.203-1.719-.308-3.562-.316h-3.153v6.774h4.477c.906 0 1.59-.075 2.05-.223.462-.156.766-.387.915-.692.148-.304.218-.754.21-1.347l-.023-1.559Zm22.477.563c-.008.492-.028.925-.059 1.3-.021.35-.064.698-.129 1.043a7.66 7.66 0 0 1-.199.832 2.052 2.052 0 0 1-.34.645 3.425 3.425 0 0 1-.433.48c-.184.142-.39.253-.61.329-.244.09-.495.16-.75.21a8.968 8.968 0 0 1-.972.118c-.399.03-.786.05-1.16.058a66.37 66.37 0 0 1-1.395.012H89.25V69.54h6.633c.883 0 1.613.046 2.191.14a4.79 4.79 0 0 1 1.547.48c.453.234.781.567.984.996.204.43.309.977.317 1.64l.012 1.266c0 .532-.02.965-.059 1.301-.039.336-.109.64-.211.914-.079.252-.23.477-.434.645a2.696 2.696 0 0 1-.714.398c-.347.12-.704.211-1.067.27.532.054.989.172 1.371.351.383.18.684.395.903.645.226.25.402.566.527.95.125.382.207.757.246 1.124.039.367.059.805.059 1.313Zm-2.942-8.414v-.762c0-.14-.023-.309-.07-.504-.04-.203-.082-.336-.129-.399-.039-.062-.137-.144-.293-.246a.915.915 0 0 0-.445-.187c-.234-.034-.468-.06-.703-.082a7.522 7.522 0 0 0-.938-.059h-4.429v5.602h2.355a30.38 30.38 0 0 0 2.484-.082c.633-.063 1.102-.164 1.407-.305.312-.148.515-.304.609-.469.102-.164.152-.382.152-.656v-1.851Zm.621 7.851c-.015-.93-.05-1.516-.105-1.758-.11-.43-.379-.722-.809-.879-.53-.203-1.718-.308-3.562-.316h-3.152v6.774h4.476c.906 0 1.59-.075 2.05-.223.462-.156.766-.387.915-.692.148-.304.219-.754.21-1.347l-.023-1.559ZM113.59 87h-8.871V69.54h2.379v15.667h6.726L113.59 87Zm9.222.281c-.679 0-1.285-.015-1.816-.047a6.9 6.9 0 0 1-1.453-.234c-.385-.1-.768-.21-1.148-.328a1.996 1.996 0 0 1-.856-.574c-.25-.29-.457-.535-.621-.739-.164-.21-.305-.554-.422-1.03a17.219 17.219 0 0 1-.258-1.231 17.102 17.102 0 0 1-.14-1.582 63.44 63.44 0 0 1-.059-1.829v-2.203c0-1.156.031-2.117.094-2.882.062-.766.183-1.477.363-2.133.188-.656.43-1.172.727-1.547.304-.375.715-.695 1.23-.961.524-.273 1.129-.457 1.817-.55.695-.102 1.542-.153 2.542-.153.946 0 1.754.047 2.426.14a6.193 6.193 0 0 1 1.782.504c.523.235.941.532 1.253.891.321.351.582.816.786 1.394.203.579.339 1.227.41 1.946.078.71.117 1.578.117 2.601 0 2.891-.043 4.793-.129 5.707-.148 1.563-.508 2.68-1.078 3.352-.602.719-1.625 1.172-3.07 1.36-.688.085-1.52.128-2.497.128Zm1.676-16.172a24.657 24.657 0 0 0-1.676-.046c-.671 0-1.23.015-1.675.046a5.36 5.36 0 0 0-1.172.2c-.328.101-.582.214-.762.34-.18.124-.328.32-.445.585-.11.258-.184.524-.223.797-.031.274-.055.645-.07 1.113a264.035 264.035 0 0 0-.035 4.36c0 2.203.058 3.71.175 4.523.188 1.22.543 1.922 1.067 2.11.39.226 1.437.34 3.14.34 1.704 0 2.75-.114 3.141-.34a1.04 1.04 0 0 0 .399-.27c.125-.125.226-.293.304-.504.086-.21.16-.422.223-.632.062-.22.113-.497.152-.833.039-.335.071-.636.094-.902.023-.273.039-.617.047-1.031.008-.422.012-.77.012-1.043.007-.274.011-.637.011-1.09 0-1.578-.011-3.14-.035-4.688-.015-.468-.043-.84-.082-1.113a2.604 2.604 0 0 0-.223-.797c-.109-.265-.253-.46-.433-.586-.18-.125-.438-.238-.774-.34a5.166 5.166 0 0 0-1.16-.199Zm21.129 7.16v7.489c-1.109 1.015-3.355 1.523-6.738 1.523-.664 0-1.25-.027-1.758-.082a15.75 15.75 0 0 1-1.383-.21 2.914 2.914 0 0 1-1.066-.434 7.61 7.61 0 0 1-.785-.633c-.227-.211-.41-.516-.551-.914a13.678 13.678 0 0 1-.352-1.172c-.086-.375-.152-.879-.199-1.512a52.41 52.41 0 0 1-.082-1.816 87.017 87.017 0 0 1-.023-2.227c0-.773.004-1.433.011-1.98.016-.547.043-1.106.082-1.676.047-.57.106-1.043.176-1.418.078-.383.18-.766.305-1.148.133-.391.285-.703.457-.938.189-.26.404-.5.644-.715.258-.234.543-.414.856-.539.32-.125.691-.238 1.113-.34a8.07 8.07 0 0 1 1.383-.199c.5-.039 1.066-.059 1.699-.059h.176c.547 0 .961.004 1.242.012s.66.04 1.137.094c.484.047.855.125 1.113.234.258.102.555.258.891.47.314.18.573.443.75.76.164.298.308.677.433 1.138.125.46.188.992.188 1.593 0 .14-.008.336-.024.586l-2.097.399-.129-2.309c-.016-.5-.301-.82-.856-.96-.554-.15-1.605-.224-3.152-.224-1.055 0-1.851.067-2.39.2-.54.125-.915.32-1.126.586-.21.265-.339.66-.386 1.183a110.66 110.66 0 0 0-.106 4.922c0 1.688.035 3.328.106 4.922.039.844.105 1.39.199 1.64.148.383.488.641 1.02.774.5.125 1.371.188 2.613.188 2.672 0 4.152-.18 4.441-.54-.01-1.633-.014-3.265-.011-4.898h-2.954l-.199-1.77h5.332Z" fill="#3294F8"/>
</svg>
